<svg width="40" height="40" viewBox="0 0 40 40" fill="none" xmlns="http://www.w3.org/2000/svg">
<g clip-path="url(#clip0_1969_3997)">
<path d="M12.5781 10.6635L6.32812 6.91351V33.0865L12.5781 29.3365V10.6635Z" fill="#185A61"/>
<path d="M14.2176 7.42353L10.4379 1.04517L7.25684 4.73743L13.4468 8.45134L14.2176 7.42353Z" fill="#185A61"/>
<path d="M13.4468 31.5486L7.25684 35.2626L10.4379 38.9548L14.2176 32.5765L13.4468 31.5486Z" fill="#185A61"/>
<path d="M25.7825 32.5765L29.5622 38.9548L32.7433 35.2626L26.5533 31.5486L25.7825 32.5765Z" fill="#185A61"/>
<path d="M27.4219 29.3365L33.6719 33.0865V6.91351L27.4219 10.6635V29.3365Z" fill="#185A61"/>
<path d="M16.2927 33.6719L12.5427 40H27.4573L23.7073 33.6719H16.2927Z" fill="#185A61"/>
<path d="M14.9219 10.3906V29.6094L16.2109 31.3281H23.7891L25.0781 29.6094V10.3906L23.7891 8.67188H16.2109L14.9219 10.3906Z" fill="#185A61"/>
<path d="M23.7073 6.32812L27.4573 0H12.5427L16.2927 6.32812H23.7073Z" fill="#185A61"/>
<path d="M26.5533 8.45134L32.7433 4.73743L29.5622 1.04517L25.7825 7.42353L26.5533 8.45134Z" fill="#185A61"/>
<path d="M3.125 21.1719C3.77219 21.1719 4.29688 20.6472 4.29688 20C4.29688 19.3528 3.77219 18.8281 3.125 18.8281H1.17188C0.524687 18.8281 0 19.3528 0 20C0 20.6472 0.524687 21.1719 1.17188 21.1719H3.125Z" fill="#185A61"/>
<path d="M2.70363 11.0464C2.24605 10.5888 1.50402 10.5888 1.04637 11.0464C0.588711 11.5041 0.588711 12.246 1.04637 12.7037L2.29637 13.9537C2.5252 14.1825 2.82512 14.2969 3.12504 14.2969C3.42496 14.2969 3.72488 14.1825 3.95363 13.9536C4.41129 13.496 4.41129 12.754 3.95363 12.2964L2.70363 11.0464Z" fill="#185A61"/>
<path d="M2.29637 26.0464L1.04637 27.2964C0.588711 27.7541 0.588711 28.496 1.04637 28.9537C1.27512 29.1825 1.57504 29.2969 1.87496 29.2969C2.17488 29.2969 2.4748 29.1825 2.70355 28.9536L3.95355 27.7036C4.41121 27.246 4.41121 26.504 3.95355 26.0464C3.49598 25.5887 2.75395 25.5887 2.29637 26.0464Z" fill="#185A61"/>
<path d="M38.8281 18.8281H36.875C36.2278 18.8281 35.7031 19.3528 35.7031 20C35.7031 20.6472 36.2278 21.1719 36.875 21.1719H38.8281C39.4753 21.1719 40 20.6472 40 20C40 19.3528 39.4753 18.8281 38.8281 18.8281Z" fill="#185A61"/>
<path d="M36.875 14.2969C37.175 14.2969 37.4749 14.1825 37.7036 13.9536L38.9536 12.7036C39.4113 12.2459 39.4113 11.504 38.9536 11.0463C38.4961 10.5886 37.754 10.5886 37.2964 11.0463L36.0464 12.2963C35.5887 12.754 35.5887 13.4959 36.0464 13.9536C36.2752 14.1825 36.5751 14.2969 36.875 14.2969Z" fill="#185A61"/>
<path d="M37.7036 26.0464C37.2461 25.5888 36.504 25.5888 36.0464 26.0464C35.5887 26.5041 35.5887 27.246 36.0464 27.7037L37.2964 28.9537C37.5252 29.1825 37.8251 29.2969 38.125 29.2969C38.425 29.2969 38.7249 29.1825 38.9536 28.9536C39.4113 28.496 39.4113 27.754 38.9536 27.2963L37.7036 26.0464Z" fill="#185A61"/>
</g>
<defs>
<clipPath id="clip0_1969_3997">
<rect width="40" height="40" fill="white"/>
</clipPath>
</defs>
</svg>
