<svg width="20" height="20" viewBox="0 0 20 20" fill="none" xmlns="http://www.w3.org/2000/svg">
<path d="M19.8242 12.3986C19.4824 11.8448 18.7564 11.6729 18.2026 12.0148L12.9544 14.7682L12.9534 14.7684C13.3042 14.5643 13.5403 14.1846 13.5403 13.7494C13.5403 13.0986 13.0128 12.5711 12.362 12.5711H10.5945C7.98905 10.3585 6.47029 12.5711 6.47029 12.5711H4.70279L4.70287 16.6953L7.64871 17.8736H12.362L19.4404 14.0202C19.9942 13.6784 20.166 12.9523 19.8242 12.3986Z" fill="#185A61"/>
<path d="M10.1198 7.88065C10.6537 8.41452 11.5192 8.41452 12.0531 7.88069C11.5193 8.4146 11.5193 9.28012 12.0532 9.81399C12.587 10.3479 13.4526 10.3479 13.9865 9.81399C14.5204 10.3479 15.386 10.3479 15.9199 9.81399C16.4537 9.28016 16.4538 8.41467 15.92 7.88077C16.4539 8.41452 17.3194 8.41452 17.8532 7.88065C18.3871 7.34679 18.3871 6.48118 17.8532 5.94732C18.3871 5.41346 18.3871 4.54785 17.8532 4.01395C17.3194 3.48012 16.454 3.48008 15.9201 4.01375C16.4537 3.47985 16.4537 2.6144 15.9199 2.08057C15.386 1.54671 14.5204 1.54671 13.9865 2.08057C13.4526 1.54671 12.587 1.54671 12.0531 2.08057C11.5193 2.6144 11.5193 3.47993 12.053 4.01379C11.5191 3.48 10.6536 3.48004 10.1198 4.01391C9.58592 4.54781 9.58592 5.41338 10.1198 5.94728C9.58592 6.48114 9.58592 7.34675 10.1198 7.88065Z" fill="#185A61"/>
<path d="M0 11.2498H3.535V18.3198H0V11.2498Z" fill="#185A61"/>
</svg>
