<svg width="40" height="40" viewBox="0 0 40 40" fill="none" xmlns="http://www.w3.org/2000/svg">
<g clip-path="url(#clip0_1969_4193)">
<path d="M18.7621 18.8868L19.9999 18.422L21.2377 18.8868L21.1782 17.5659L22.0028 16.5322L20.7281 16.1806L19.9999 15.077L19.2716 16.1806L17.9971 16.5322L18.8215 17.5659L18.7621 18.8868Z" fill="white"/>
<path d="M9.00389 17.7071C9.20617 22.3598 12.2782 26.2408 16.4704 27.6572V30.5883H23.5292V27.6572C27.7083 26.2452 30.7928 22.3747 30.9956 17.7107L31.4917 7.05884H8.50781L9.00389 17.7071ZM17.7942 14.1473L19.9998 10.8053L22.2054 14.1473L26.0654 15.2122L23.5685 18.3426L23.7485 22.3428L19.9998 20.9353L16.2511 22.3427L16.4311 18.3425L13.9342 15.2122L17.7942 14.1473Z" fill="white"/>
<path d="M8.39841 4.70588H31.6016L31.8208 0H8.1792L8.39841 4.70588Z" fill="white"/>
<path d="M27.059 32.9412H12.9413V37.647H10.5884V40H29.4119V37.647H27.059V32.9412Z" fill="white"/>
<path d="M37.6471 17.6471V19.8894C37.6471 20.6005 37.0716 21.1765 36.36 21.1765C35.4804 21.1765 34.8598 20.3169 35.1381 19.4819L36.4706 15.485C37.2492 13.1495 37.6471 10.7009 37.6471 8.2353C37.6471 5.98306 36.0752 4.12761 34.0062 3.65106L33.893 6.08275C34.7073 6.44314 35.2941 7.26055 35.2941 8.2353C35.2941 10.3656 34.9624 12.5698 34.2384 14.7409L32.9059 18.7377C32.1192 21.0979 33.8722 23.5294 36.36 23.5294C38.3716 23.5294 40 21.9016 40 19.8894V17.6471H37.6471Z" fill="white"/>
<path d="M5.76157 14.7409C5.08988 12.7259 4.70588 10.5307 4.70588 8.23528C4.70588 7.26289 5.29067 6.44406 6.10706 6.08281L5.9938 3.65112C3.92651 4.1272 2.35294 5.98148 2.35294 8.23528C2.35294 10.6972 2.74973 13.1459 3.52941 15.485L4.86196 19.4818C5.14016 20.3164 4.52024 21.1765 3.64 21.1765C2.92878 21.1765 2.35294 20.6008 2.35294 19.8894V17.647H0V19.8894C0 21.9009 1.62784 23.5294 3.64 23.5294C6.12784 23.5294 7.88078 21.0979 7.09412 18.7377L5.76157 14.7409Z" fill="white"/>
</g>
<defs>
<clipPath id="clip0_1969_4193">
<rect width="40" height="40" fill="white"/>
</clipPath>
</defs>
</svg>
