<svg width="40" height="40" viewBox="0 0 40 40" fill="none" xmlns="http://www.w3.org/2000/svg">
<g clip-path="url(#clip0_1969_4181)">
<path d="M27.0586 15.2829C27.1744 18.4015 31.6499 18.3991 31.7645 15.2829V12.93H27.0586V15.2829Z" fill="white"/>
<path d="M10.5883 17.6358C11.8877 17.6358 12.9412 16.5824 12.9412 15.2829V12.93H8.23535V15.2829C8.23535 16.5824 9.28876 17.6358 10.5883 17.6358Z" fill="white"/>
<path d="M14.1177 35.2829H18.8236V39.9888H14.1177V35.2829Z" fill="white"/>
<path d="M21.1763 35.2829H25.8822V39.9888H21.1763V35.2829Z" fill="white"/>
<path d="M15.2941 11.7535H24.7058V10.577H28.9193C27.7167 7.83318 25.2495 7.36384 24.7029 7.04761H24.7026C22.4542 10.1405 17.6211 10.1681 15.3384 7.1H15.3367C15.0741 7.24651 12.3442 7.69412 11.0806 10.577H15.2941V11.7535Z" fill="white"/>
<path d="M20.0001 7.0476C21.9494 7.0476 23.5295 5.46744 23.5295 3.51819C23.3565 -1.15844 16.643 -1.15718 16.4707 3.51827C16.4707 5.46745 18.0509 7.0476 20.0001 7.0476Z" fill="white"/>
<path d="M34.1176 14.1064V15.2829C33.8803 21.5189 24.941 21.5142 24.7059 15.2829V14.1064H15.2941V15.2829C15.0568 21.5189 6.11749 21.5142 5.88235 15.2829V14.1064H0V32.93H40V14.1064H34.1176ZM16.4706 29.4006H14.7166L12.9412 27.5639L11.1657 29.4006H9.41177V22.3417H11.7647V25.3955L12.9412 24.1784L14.1176 25.3955V22.3417H16.4706V29.4006ZM21.1765 29.4006H18.8235V22.3417H21.1765V29.4006ZM30.5882 29.4006H28.8344L25.8824 26.3468V29.4006H23.5294V22.3417H25.2833L28.2353 25.3955V22.3417H30.5882V29.4006Z" fill="white"/>
</g>
<defs>
<clipPath id="clip0_1969_4181">
<rect width="40" height="40" fill="white"/>
</clipPath>
</defs>
</svg>
