<svg width="40" height="40" viewBox="0 0 40 40" fill="none" xmlns="http://www.w3.org/2000/svg">
<path d="M12.5589 8.31043L9.21187 4.96332C7.36355 7.14578 6.16418 9.89388 5.91431 12.9077H10.65C10.8652 11.1895 11.5449 9.61393 12.5589 8.31043Z" fill="white"/>
<path d="M29.1223 3.29756C26.9399 1.44924 24.1917 0.249877 21.178 0V4.73573C22.8961 4.9509 24.4718 5.63064 25.7753 6.64468L29.1223 3.29756Z" fill="white"/>
<path d="M18.822 4.73573V0C15.8082 0.249877 13.0601 1.44924 10.8777 3.29756L14.2247 6.64468C15.5282 5.63064 17.1038 4.9509 18.822 4.73573Z" fill="white"/>
<path d="M10.8777 24.8737C13.0601 26.722 15.8082 27.9214 18.822 28.1713V23.4356C17.1038 23.2203 15.5282 22.5406 14.2247 21.5266L10.8777 24.8737Z" fill="white"/>
<path d="M25.7753 21.5266C24.4718 22.5406 22.8962 23.2203 21.178 23.4356V28.1713C24.1918 27.9214 26.9399 26.722 29.1223 24.8737L25.7753 21.5266Z" fill="white"/>
<path d="M10.65 15.2635H5.91431C6.16418 18.2773 7.36355 21.0255 9.21187 23.2079L12.5589 19.8608C11.5449 18.5573 10.8652 16.9817 10.65 15.2635Z" fill="white"/>
<path d="M29.3499 15.2635C29.1346 16.9818 28.455 18.5573 27.4409 19.8608L30.788 23.2079C32.6363 21.0254 33.8356 18.2773 34.0855 15.2635H29.3499Z" fill="white"/>
<path d="M29.35 12.9077H34.0858C33.8359 9.89386 32.6365 7.14576 30.7882 4.96338L27.4412 8.31049C28.4551 9.61391 29.1349 11.1895 29.35 12.9077Z" fill="white"/>
<path d="M27.0675 14.0856C27.0675 10.1886 23.897 7.01807 19.9999 7.01807C10.6368 7.37341 10.6393 20.7992 20 21.1532C23.897 21.1532 27.0675 17.9827 27.0675 14.0856Z" fill="white"/>
<path d="M4.68701 30.5766H7.47116V34.1104H4.68701V30.5766Z" fill="white"/>
<path d="M10.2554 30.5766H13.0395V34.1104H10.2554V30.5766Z" fill="white"/>
<path d="M15.8237 30.5766H18.6079V34.1104H15.8237V30.5766Z" fill="white"/>
<path d="M21.3921 30.5766H24.1762V34.1104H21.3921V30.5766Z" fill="white"/>
<path d="M26.9604 30.5766H29.7446V34.1104H26.9604V30.5766Z" fill="white"/>
<path d="M32.5288 30.5766H35.313V34.1104H32.5288V30.5766Z" fill="white"/>
<path d="M4.68701 36.4662H7.47116V40H4.68701V36.4662Z" fill="white"/>
<path d="M10.2554 36.4662H13.0395V40H10.2554V36.4662Z" fill="white"/>
<path d="M15.8237 36.4662H18.6079V40H15.8237V36.4662Z" fill="white"/>
<path d="M21.3921 36.4662H24.1762V40H21.3921V36.4662Z" fill="white"/>
<path d="M26.9604 36.4662H29.7446V40H26.9604V36.4662Z" fill="white"/>
<path d="M32.5288 36.4662H35.313V40H32.5288V36.4662Z" fill="white"/>
</svg>
