<svg width="40" height="40" viewBox="0 0 40 40" fill="none" xmlns="http://www.w3.org/2000/svg">
<g clip-path="url(#clip0_1969_4204)">
<path d="M25.8824 4.11765H14.1177V22.9412H25.8824V4.11765ZM22.9412 10.3247L20.5413 18.5643L18.2822 17.9063L20.2424 11.1765H18.2353V8.82353H22.9412V10.3247Z" fill="white"/>
<path d="M28.2354 4.11765V22.9412H40.0001V4.11765H28.2354ZM36.4706 10.3247L34.0707 18.5643L31.8117 17.9063L33.7718 11.1765H31.7648V8.82353H36.4706V10.3247Z" fill="white"/>
<path d="M11.7647 4.11765H0V22.9412H11.7647V4.11765ZM8.23529 10.3247L5.83537 18.5643L3.57631 17.9063L5.53647 11.1765H3.52941V8.82353H8.23529V10.3247Z" fill="white"/>
<path d="M0 30H16.212L15.5061 33.5294H12.9412V35.8824H15.0355H24.9645H27.0588V33.5294H24.4939L23.788 30H40V25.2941H0V30Z" fill="white"/>
</g>
<defs>
<clipPath id="clip0_1969_4204">
<rect width="40" height="40" fill="white"/>
</clipPath>
</defs>
</svg>
